/* XPM */
static char *KSCard[] = {
/* width height num_colors chars_per_pixel */
"    66    65      256            2",
/* colors */
"`` c #000000",
"`. c #000055",
"`# c #0000aa",
"`a c #0000ff",
"`b c #002400",
"`c c #002455",
"`d c #0024aa",
"`e c #0024ff",
"`f c #004800",
"`g c #004855",
"`h c #0048aa",
"`i c #0048ff",
"`j c #006d00",
"`k c #006d55",
"`l c #006daa",
"`m c #006dff",
"`n c #009100",
"`o c #009155",
"`p c #0091aa",
"`q c #0091ff",
"`r c #00b600",
"`s c #00b655",
"`t c #00b6aa",
"`u c #00b6ff",
"`v c #00da00",
"`w c #00da55",
"`x c #00daaa",
"`y c #00daff",
"`z c #00ff00",
"`A c #00ff55",
"`B c #00ffaa",
"`C c #00ffff",
"`D c #240000",
"`E c #240055",
"`F c #2400aa",
"`G c #2400ff",
"`H c #242400",
"`I c #242455",
"`J c #2424aa",
"`K c #2424ff",
"`L c #244800",
"`M c #244855",
"`N c #2448aa",
"`O c #2448ff",
"`P c #246d00",
"`Q c #246d55",
"`R c #246daa",
"`S c #246dff",
"`T c #249100",
"`U c #249155",
"`V c #2491aa",
"`W c #2491ff",
"`X c #24b600",
"`Y c #24b655",
"`Z c #24b6aa",
"`0 c #24b6ff",
"`1 c #24da00",
"`2 c #24da55",
"`3 c #24daaa",
"`4 c #24daff",
"`5 c #24ff00",
"`6 c #24ff55",
"`7 c #24ffaa",
"`8 c #24ffff",
".` c #480000",
".. c #480055",
".# c #4800aa",
".a c #4800ff",
".b c #482400",
".c c #482455",
".d c #4824aa",
".e c #4824ff",
".f c #484800",
".g c #484855",
".h c #4848aa",
".i c #4848ff",
".j c #486d00",
".k c #486d55",
".l c #486daa",
".m c #486dff",
".n c #489100",
".o c #489155",
".p c #4891aa",
".q c #4891ff",
".r c #48b600",
".s c #48b655",
".t c #48b6aa",
".u c #48b6ff",
".v c #48da00",
".w c #48da55",
".x c #48daaa",
".y c #48daff",
".z c #48ff00",
".A c #48ff55",
".B c #48ffaa",
".C c #48ffff",
".D c #6d0000",
".E c #6d0055",
".F c #6d00aa",
".G c #6d00ff",
".H c #6d2400",
".I c #6d2455",
".J c #6d24aa",
".K c #6d24ff",
".L c #6d4800",
".M c #6d4855",
".N c #6d48aa",
".O c #6d48ff",
".P c #6d6d00",
".Q c #6d6d55",
".R c #6d6daa",
".S c #6d6dff",
".T c #6d9100",
".U c #6d9155",
".V c #6d91aa",
".W c #6d91ff",
".X c #6db600",
".Y c #6db655",
".Z c #6db6aa",
".0 c #6db6ff",
".1 c #6dda00",
".2 c #6dda55",
".3 c #6ddaaa",
".4 c #6ddaff",
".5 c #6dff00",
".6 c #6dff55",
".7 c #6dffaa",
".8 c #6dffff",
"#` c #910000",
"#. c #910055",
"## c #9100aa",
"#a c #9100ff",
"#b c #912400",
"#c c #912455",
"#d c #9124aa",
"#e c #9124ff",
"#f c #914800",
"#g c #914855",
"#h c #9148aa",
"#i c #9148ff",
"#j c #916d00",
"#k c #916d55",
"#l c #916daa",
"#m c #916dff",
"#n c #919100",
"#o c #919155",
"#p c #9191aa",
"#q c #9191ff",
"#r c #91b600",
"#s c #91b655",
"#t c #91b6aa",
"#u c #91b6ff",
"#v c #91da00",
"#w c #91da55",
"#x c #91daaa",
"#y c #91daff",
"#z c #91ff00",
"#A c #91ff55",
"#B c #91ffaa",
"#C c #91ffff",
"#D c #b60000",
"#E c #b60055",
"#F c #b600aa",
"#G c #b600ff",
"#H c #b62400",
"#I c #b62455",
"#J c #b624aa",
"#K c #b624ff",
"#L c #b64800",
"#M c #b64855",
"#N c #b648aa",
"#O c #b648ff",
"#P c #b66d00",
"#Q c #b66d55",
"#R c #b66daa",
"#S c #b66dff",
"#T c #b69100",
"#U c #b69155",
"#V c #b691aa",
"#W c #b691ff",
"#X c #b6b600",
"#Y c #b6b655",
"#Z c #b6b6aa",
"#0 c #b6b6ff",
"#1 c #b6da00",
"#2 c #b6da55",
"#3 c #b6daaa",
"#4 c #b6daff",
"#5 c #b6ff00",
"#6 c #b6ff55",
"#7 c #b6ffaa",
"#8 c #b6ffff",
"a` c #da0000",
"a. c #da0055",
"a# c #da00aa",
"aa c #da00ff",
"ab c #da2400",
"ac c #da2455",
"ad c #da24aa",
"ae c #da24ff",
"af c #da4800",
"ag c #da4855",
"ah c #da48aa",
"ai c #da48ff",
"aj c #da6d00",
"ak c #da6d55",
"al c #da6daa",
"am c #da6dff",
"an c #da9100",
"ao c #da9155",
"ap c #da91aa",
"aq c #da91ff",
"ar c #dab600",
"as c #dab655",
"at c #dab6aa",
"au c #dab6ff",
"av c #dada00",
"aw c #dada55",
"ax c #dadaaa",
"ay c #dadaff",
"az c #daff00",
"aA c #daff55",
"aB c #daffaa",
"aC c #daffff",
"aD c #ff0000",
"aE c #ff0055",
"aF c #ff00aa",
"aG c #ff00ff",
"aH c #ff2400",
"aI c #ff2455",
"aJ c #ff24aa",
"aK c #ff24ff",
"aL c #ff4800",
"aM c #ff4855",
"aN c #ff48aa",
"aO c #ff48ff",
"aP c #ff6d00",
"aQ c #ff6d55",
"aR c #ff6daa",
"aS c #ff6dff",
"aT c #ff9100",
"aU c #ff9155",
"aV c #ff91aa",
"aW c #ff91ff",
"aX c #ffb600",
"aY c #ffb655",
"aZ c #ffb6aa",
"a0 c #ffb6ff",
"a1 c #ffda00",
"a2 c #ffda55",
"a3 c #ffdaaa",
"a4 c #ffdaff",
"a5 c #ffff00",
"a6 c #ffff55",
"a7 c #ffffaa",
"a8 c #ffffff",
/* pixels */
"a8a8a8a8a8a8a8a8a8a8a8a8a8a8a8a8a8a8a8a8a8a8a8a8a8a8a8a8a8a8a8a8a8a8a8a8a8a8a8a8a8a8a8a8a8a8a8a8a8a8a8a8a8a8a8a8a8a8a8a8a8a8a8a8a8a8",
"a8a8a8a8a8a8a8a8a8a8a8a8a8a8a8a8a8a8a8a8a8a8a8a8a8a8a8a8a8a8a8a8a8a8a8a8a8a8a8a8a8a8a8a8a8a8a8a8a8a8a8a8a8a8a8a8a8a8a8a8a8a8a8a8a8a8",
"a8a8a8a8a8a8a8a8a8a8a8a8a8a8a8a8a8a8a8a8a8a8a8a8a8a8a8a8a8a8a8a8a8a8a8a8a8a8a8a8a8a8a8a8a8a8a8a8a8a8a8a8a8a8a8a8a8a8a8a8a8a8a8a8a8a8",
"a8a8a8a8a8a8a8a8a8a8a8a8a8a8a8a8a8a8a8a8a8a8a8a8a8a8a8a8a8a8a8a8a8a8a8a8a8a8a8a8a8a8a8a8a8a8a8a8a8a8a8a8a8a8a8a8a8a8a8a8a8a8a8a8a8a8",
"a8a8a8a8a8a8a8a8a8a8a8a8a8a8a8a8a8a8a8a8a8a8a8a8a8a8a8a8a8a8a8a8a8a8a8a8a8a8a8a8a8a8a8a8a8a8a8a8a8a8a8a8a8a8a8a8a8a8a8a8a8a8a8a8a8a8",
"a8a8a8a8a8a8a8a8a8a8a8a8a8a8a8a8a8a8a8a8a8a8a8a8a8a8a8a8a8a8a8a8a8a8a8a8a8a8a8a8a8a8a8a8a8a8a8a8a8a8a8a8a8a8a8a8a8a8a8a8a8a8a8a8a8a8",
"a8a8a8a8a8a8a8a8a8a8a8a8a8a8a8a8a8a8a8a8a8a8a8a8a8a8a8a8a8a8a8a8a8a8a8a8a8a8a8a8a8a8a8a8a8a8a8a8a8a8a8a8a8a8a8a8a8a8a8a8a8a8a8a8a8a8",
"a8a8a8a8a8a8a8a8a8a8a8a8a8a8a8a8a8a8a8a8a8a8a8a8a8a8a8a8a8a8a8a8a8a8a8a8a8a8a8a8a8a8a8a8a8a8a8a8a8a8a8a8a8a8a8a8a8a8a8a8a8a8a8a8a8a8",
"a8a8a8a8a8a8a8a8a8a8a8a8a8a8a8a8a8a8a8a8a8a8a8a8a8a8a8a8a8a8a8a8a8a8a8a8a8a8a8a8a8a8a8a8a8a8a8a8a8a8a8a8a8a8a8a8a8a8a8a8a8a8a8a8a8a8",
"a8a8a8a8a8a8a8a8a8a8a8a8a8a8a8a8a8a8a8a8a8a8a8a8a8a8a8a8a8a8a8a8a8a8a8a8a8a8a8a8a8a8a8a8a8a8a8a8a8a8a8a8a8a8a8a8a8a8a8a8a8a8a8a8a8a8",
"a8a8a8a8a8a8a8a8a8a8a8a8a8a8a8a8a8a8a8a8a8a8a8a8a8a8a8a8a8a8a8a8a8a8a8a8a8a8a8a8a8a8a8a8a8a8a8a8a8a8a8a8a8a7a8a8a8a8a8a8a8a8a8a8a8a8",
"a8a8a8a8a8a8a8a8a8a8a8a8a8a8a8a8a8a8a8a8a8a8a8a8a8a8a8a8a8a8a8a8a8a8a8a8a8a8a8a8a8a8a8a8a8a8a8a8a8a8a8a8a8a8a8a8a8a8a8a8a8a8a8a8a8a8",
"a8a8a8a8a8a8a8a8a8a8a8a8a8a8a8a8a8a8a8a8a8a8a8a8a8a8a8a8a8a8a8a8a8a8a8a8a8aCa8ayaC#3#4#Z#0#t#t.V#p.R.V#pa8a8a8a8a8a8a8a8a8a8a8a8a8a8",
"a8a8a8a8a8a8a8a8a8a8a8a8a8a8a8a8a8a8a8a8a8a8a8a8a8a8aCaCayay#Z#Z#p#p.R.R.l.h`J`J`d`N`d`h`h`N`h`h`h`N`h`J#pa8a8a8a8a8a8a8a8a8a8a8a8a8",
"a8a8a8a8a8a8a8a8a8a8a8a8a8ayay#Z#0#p#p.R.V.l.R.h.l`M.h`J`N`d`N`d`N`h`R`M.l.l.W.l.W.l.q.l.q`W.q`W.q`W.q`h`N#3a8a8a8a8a8a8a8a8a8a8a8a8",
"a8a8a8a8a8a8a8a8a8a8a8#u.l`N`d`J`d`N`h`N`N`N`N`R`R.m.l.q.l.q.q.W.0.0.0#u.0.0.u.u.u.u.q.q`W.q`W`W`W`W`W`S`c#Za8a8a8a8a8a8a8a8a8a8a8a8",
"a8a8a8a8a8a8a8a8a8a8#4`d`N.V.W.V#u#t#y#u#y#u#y.0.0.0.0.0.4.u.0.u.0.q.u.q.u.q.u`W.u`W.u`W.q`W.q`W.q`W`W`m`N#pa8a8a8a8a8a8a8a8a8a8a8a8",
"a8a8a8a8a8a8a8a8a8a8.V`N#0aC#4#y#u#u.0.0.0.0.0.0.0.0.u.0.u.0.q.u.u.u.q.q.q.u.q.q.q.q`W.q`W`W`W`W`W`W`W`W`d#pa4a8a8a8a8a8a8a8a8a8a8a8",
"a8a8a8a8a8a8a8a8a8a8.R`Na8#4#y.0#y.0.0.0.0.0.0.0.0.u.0.u.0.q.0.q.u.q.u.q.u`W.u`W.u`W.u`W.q`W.q`W`W`W`W`S`h.Ra8a8a8a8a8a8a8a8a8a8a8a8",
"a8a8a8a8a8a8a8a8a8a8.R`Nay#y.0#u.0.0.0.0.0.0.0.0.0.0.0.0.u.u.u.u.q.u.q.u.q.q.q.q`W.q`W.q`W`W`W`W`W`W`W`W`h.Raya8a8a8a8a8a8a8a8a8a8a8",
"a8a8a8a8a8a8a8a8a8a8#p`d#4#y.4.0.4.0.0.0.4.0.0.u.0.u.0.q.0.q.0.q.u.q.u.q.u.q.u`W.u`W.q`W.q`W`W`W`W`W`W`S`S.haya8a8a8a8a8a8a8a8a8a8a8",
"a8a8a8a8a8a8a8a8a8a8#Z`d#p#8.0#u.0.0.0.0.0.0.0.0.0.0.u.0.u.0.q.u.u.u.q.u.q.u`W.q.q.q`W`W`W`W`W`W`W`W`W`W`S`N#Za8a8a8a8a8a8a8a8a8a8a8",
"a8a8a8a8a8a8a8a8a8a8ay`d.W#4#y.0.0.0.4.0.0.u.0.0.0.q.0.q.0.q.u.q.u`W.u`W.u`W.u`W.q`W.q`W.q`W`W`W`W`m`W`q`S`d#0a8a8a8a8a8a8a8a8a8a8a8",
"a8a8a8a8a8a8a8a8a8a8ay`N.RaC.0#u.0.0.0.0.0.0.0.0.u.u.u.u.u.u.q.u.u.u.q.q.q.q.q.q`W.q`W`W`W`W`W`W`W`W`W`W`S`h#pa8a8a8a8a8a8a8a8a8a8a8",
"a8a8a8a8a8a8a8a8a8a8a8`M.ma8#y.0#y.0.0.0.0.0.0.u.0.u.0.q.0.q.u.q.u.q.u.q.u`W.q`W.u`W.q`W.q`W`W`S`W`W`W`m`W`h.Vaxa8a8a8a8a8a8a8a8a8a8",
"a8a8a8a8a8a8a8a8a8a8a8.l`Ra8#y.0.0.4.u.0.0.0.u.0.0.0.Z.Z.0.0.q.q.q.u.q.q.q.q`W.q`W.q`W`W`W`W`W`W`W`W`W`W`S`h.ka4a8a8a8a8a8a8a8a8a8a8",
"a8a8a8a8a8a8a8a8a8a8a8.l`NaC#y.u#y.0.0.0.0.Z#t#o#U#j#U#j#U.V.u.q.u.q.u.q.u`W.u`W.q`W.q`W`W`S`W`S`W`m`W`m`W`h.laxa8a8a8a8a8a8a8a8a8a8",
"a8a8a8a8a8a8a8a8a8a8a8#p`day#4#u#p#p#o#U#T#T#P#T#P#T#Tan#P.V.u.u.q.q.q.u.q.q`W.q`W`W`W`W`W`W`W`W`W`W`W`W`q`h`Naya8a8a8a8a8a8a8a8a8a8",
"a8a8a8a8a8a8a8a8a8a8a8#p`N#u#8#o#U#Taranaranaranasanaranao.U.u`W.u.q.u`W.u`W.q`W.q`W`W`W`W`W`W`m`W`S`W`m`W`h`N#Za8a8a8a8a8a8a8a8a8a8",
"a8a8a8a8a8a8a8a8a8a8a8au`d.W#4#t#Ta1araranararararar#Taran#o.q.u.q.u.q.q.q.q`W`W`W`W`W`W`W`W`W`W`W`W`W`W`m`S`J#Za8a8a8a8a8a8a8a8a8a8",
"a8a8a8a8a8a8a8a8a8a8a8ax`R.haC#tara1a1aXararaXarar#Tan#Tan#n.0`W.u`W.u`W.q`W.q`W.q`W`W`W`W`S`W`W`W`m`W`m`W`m`N#pa8a8a8a8a8a8a8a8a8a8",
"a8a8a8a8a8a8a8a8a8a8a8a8.l`Nay#t#Ta1aXaYanarararararararan#T.W.u.q.q.q.q`W.q`W`W`W`W`W`W`W`W`W`W`W`W`W`W`q`m`h#pa4a8a8a8a8a8a8a8a8a8",
"a8a8a8a8a8a8a8a8a8a8a8a8.V`hay#Zasara1#Xasara1araXanaYaraX#T.Z`W.u.q.u`W.q`W.q`W.q`W`W`W`W`W`W`m`W`m`W`m`W`S`i.ka8a8a8a8a8a8a8a8a8a8",
"a8a8a8a8a8a8a8a8a8a8a8a8#p`h#4#4#Xava1a1a1aXaXaXaXarararaXan.V.q.q.u`W`W`W.q`W`W`W`W`W`W`W`W`m`W`W`W`W.0#y#4`R`Maya8a8a8a8a8a8a8a8a8",
"a8a8a8a8a8a8a8a8a8a8a8a8#t`d#4axawava5a1a2ara2a1a1anaXaraXan#t.q.u.q.u`W.u`W.q`W`W`q`W`m`W`W.0#u#4#8aCaya8aC.m`Maya8a8a8a8a8a8a8a8a8",
"a8a8a8a8a8a8a8a8a8a8a8a8#Z`d#uaCawava1a1avava1a1a1araXa1aXar#o.q.q.q`W.q`W`W`W`W`W.q.0#u#4aCa8a8a8a8#p#la8a8.q`h#Za8a8a8a8a8a8a8a8a8",
"a8a8a8a8a8a8a8a8a8a8a8a8ay`J#uay#3ara5a1a5ava5a1a6ara1ara2ar#s.q.u`W.u`S`W`W.q#uaCaCa8a8a8a8a8aBa8aC.R.ha8a8#u`d#0a8a8a8a8a8a8a8a8a8",
"a8a8a8a8a8a8a8a8a8a8a8a8ay`N.paC#xa5a5a5a5a5a5a5a1a1aXa1aras.Y`W`W.q.q.0#y#4aCa8ayaya8a8a8a8ayayau#p`J.ha8a8#u`d#pa8a8a8a8a8a8a8a8a8",
"a8a8a8a8a8a8a8a8a8a8a8a8a8`M`Say#yava5a5a6ava2aravaraw#s.Z.q.u.u#yaya8a8a8a8a8.R`J.ha8#Z#0ay.R`I.l`J#q.ga8a8#4`d#pa4a8a8a8a8a8a8a8a8",
"a8a8a8a8a8a8a8a8a8a8a8a8a8.R`hay#uavava1avaw#Y#t.Z.u.u#u#y#4aCa8#paya8a8a8a8#p.h#0a8#0.R`J.V.h#p#0.h#0`Naya8#4`h.Ra4a8a8a8a8a8a8a8a8",
"a8a8a8a8a8a8a8a8a8a8a8a8a8#p`d#t#4#x#7#w.0.q.0.u#y#4a8aCa8a8a8ay.O#paCayay#p.h.ha8a8aC.R.h.h.R.Ray`I.d.ha8aC#u`c.Vaxa8a8a8a8a8a8a8a8",
"a8a8a8a8a8a8a8a8a8a8a8a8a8#Z`c#u#y.u.q.0#4a8a8a8a8a8a8a8a8#q.haC#0#u`N#q#q.h.h.Na8a8#0`J.l.h#p.Ra8ayaya8ay.W`J`d#pa8a8a8a8a8a8a8a8a8",
"a8a8a8a8a8a8a8a8a8a8a8a8a8#3`N.VaC#3a8a8a8#0#0aya8a8a8#4ay.h`J#p.S.l#q.h#q.R#q`J#u#p.V`I.R.RayaxaC#4#u.l`N`c`N.k#4a8a8a8a8a8a8a8a8a8",
"a8a8a8a8a8a8a8a8a8a8a8a8a8ay`J.Sa8a8a8a8#0`J`##0a8a8.S`J.V.R`JaC.S.ha8.h`.#uaC.R`E.d#Za8aCaC#4.W`N`J`J`N.g.V#taya4a8a8a8a8a8a8a8a8a8",
"a8a8a8a8a8a8a8a8a8a8a8a8a8ay.h`Na8a8a8a8#0`N.S.ha8#t`J#0a8#0`Jax#0`Ja8.V`Jaua8a8a8ayaC.V.W`N`N`I.l.k#p#payaxa8a3a8a8a8aCa8a8a8a8a8a8",
"a8a8a8a8a8a8a8a8a8a8a8a8a8a8.l`Ra8a8a8a8#p.i#0`J#q#u`Jaya8aC`J.N#q.laya8aya8#4#4.0.p`N`d`N.h.Q#p#Zayaya8a8a8a8a8a8a8a8a8a8a8a8a8a8a8",
"a8a8a8a8a8a8a8a8a8a8a8a8a8a8.R`ha8a8a8aC#q`d.i`#.i#3`J`J.h#Z#0.Ra8aCaC#4#u.l`O`d`N`I.R.Q#Z#Zayaxa8a8a8a8a8a8a8a8a8a8a8a8a8a8a8a8a8a8",
"a8a8a8a8a8a8a8a8a8a8a8a8a8a8.V`h#4a8a8a8.R`J#q#q`J#0#q.N#paCaCaC#4.0.m`R`d`h`N.l.R#p#Zayaya8a8a8a8a8a8a8a8a8a8a8a8a8a8a8a8a8a8a8a8a8",
"a8a8a8a8a8a8a8a8a8a8a8a8a8a8#t`d#ya8a8aC.S.ha8aB#0aya8aC#4.0.q`h`i`d`N`M.R#p#Z#Zayaya8a8a8a8a8a8a8a8a8a8a8a8a8a8a8a8a8a8a8a8a8a8a8a8",
"a8a8a8a8a8a8a8a8a8a8a8a8a8a8#Z`d.Va8a8a8#0aua8a8#4.4.q`S`N`h`d`N.g.V#p#Z#0ayaya8a8a8a8a8a8a8a8a8a8a8a8a8a8a8a8a8a8a8a8a8a8a8a8a8a8a8",
"a8a8a8a8a8a8a8a8a8a8a8a8a8a7aC`M.maCa8aCaC#4#u`S`S`h`N`c.h.g#p#p#Z#3a8aya8a8a8a8a8a8a8a8a8a8a8a8a8a8a8a8a8a8a8a8a8a8a8a8a8a8a8a8a8a8",
"a8a8a8a8a8a8a8a8a8a8a8a8a8a8a8.l`N#4#4.q`S`i`h`h`d`N.Q#p#t#Zaxa8a8a8a8a8a8a8a8a8a8a8a8a8a8a8a8a8a8a8a8a8a8a8a8a8a8a8a8a8a8a8a8a8a8a8",
"a8a8a8a8a8a8a8a8a8a8a8a8a8a8a8.V`N`N.m`d`N`c.h.g#p#pau#3a8a4a8a8a8a8a8a8a8a8a8a8a8a8a8a8a8a8a8a8a8a8a8a8a8a8a8a8a8a8a8a8a8a8a8a8a8a8",
"a8a8a8a8a8a8a8a8a8a8a8a8a8a8a8aC#p`N`J.g.Q#p#Zataya8a8a8a8a8a8a8a8a8a8a8a8a8a8a8a8a8a8a8a8a8a8a8a8a8a8a8a8a8a8a8a8a8a8a8a8a8a8a8a8a8",
"a8a8a8a8a8a8a8a8a8a8a8a8a8a8a8a8a8#Z#Z#Zayaya8aCa8a8a8a8a8a8a8a8a8a8a8a8a8a8a8a8a8a8a8a8a8a8a8a8a8a8a8a8a8a8a8a8a8a8a8a8a8a8a8a8a8a8",
"a8a8a8a8a8a8a8a8a8a8a8a8a8a8a8a8a8a8a8a8a8a8a8a8a8a8a8a8a8a8a8a8a8a8a8a8a8a8a8a8a8a8a8a8a8a8a8a8a8a8a8a8a8a8a8a8a8a8a8a8a8a8a8a8a8a8",
"a8a8a8a8a8a8a8a8a8a8a8a8a8a8a8aCa8a8a8a8a8a8a8a8a8a8a8a8a8a8a8a8a8a8a8a8a8a8a8a8a8a8a8a8a8a8a8a8a8a8a8a8a8a8a8a8a8a8a8a8a8a8a8a8a8a8",
"a8a8a8a8a8a8a8a8a8a8a8a8a8a8a8a8a8a8a8a8a8a8a8a8a8a8a8a8a8a8a8a8a8a8a8a8a8a8a8a8a8a8a8a8a8a8a8a8a8a8a8a8a8a8a8a8a8a8a8a8a8a8a8a8a8a8",
"a8a8a8a8a8a8a8a8a8a8a8a8a8a8a8a8a8a8a8a8a8a8a8a8a8a8a8a8a8a8a8a8a8a8a8a8a8a8a8a8a8a8a8a8a8a8a8a8a8a8a8a8a8a8a8a8a8a8a8a8a8a8a8a8a8a8",
"a8a8a8a8a8a8a8a8a8a8a8a8a8a8a8a8a8a8a8a8a8a8a8a8a8a8a8a8a8a8a8a8a8a8a8a8a8a8a8a8a8a8a8a8a8a8a8a8a8a8a8a8a8a8a8a8a8a8a8a8a8a8a8a8a8a8",
"a8a8a8a8a8a8a8a8a8a8a8a8a8a8a8a8a8a8a8a8a8a8a8a8a8a8a8a8a8a8a8a8a8a8a8a8a8a8a8a8a8a8a8a8a8a8a8a8a8a8a8a8a8a8a8a8a8a8a8a8a8a8a8a8a8a8",
"a8a8a8a8a8a8a8a8a8a8a8a8a8a8a8a8a8a8a8a8a8a8a8a8a8a8a8a8a8a8a8a8a8a8a8a8a8a8a8a8a8a8a8a8a8a8a8a8a8a8a8a8a8a8a8a8a8a8a8a8a8a8a8a8a8a8",
"a8a8a8a8a8a8a8a8a8a8a8a8a8a8a8a8a8a8a8a8a8a8a8a8a8a8a8a8a8a8a8a8a8a8a8a8a8a8a8a8a8a8a8a8a8a8a8a8a8a8a8a8a8a8a8a8a8a8a8a8a8a8a8a8a8a8",
"a8a8a8a8a8a8a8a8a8a8a8a8a8a8a8a8a8a8a8a8a8a8a8a8a8a8a8a8a8a8a8a8a8a8a8a8a8a8a8a8a8a8a8a8a8a8a8a8a8a8a8a8a8a8a8a8a8a8a8a8a8a8a8a8a8a8",
"a8a8a8a8a8a8a8a8a8a8a8a8a8a8a8a8a8a8a8a8a8a8a8a8a8a8a8a8a8a8a8a8a8a8a8a8a8a8a8a8a8a8a8a8a8a8a8a8a8a8a8a8a8a8a8a8a8a8a8a8a8a8a8a8a8a8"
};
